# xmcd CD database file
#
# Track frame offsets:
#	150
#	12852
#	25417
#	43262
#	60082
#	72065
#	89185
#	109827
#	128262
#	135797
#	154910
#	168290
#	183002
#	199535
#
# Disc length: 2964 seconds
#
# Revision: 1
# Processed by: cddbd v1.5.2PL0 Copyright (c) Steve Scherf et al.
# Submitted via: CDex 1.79
#
DISCID=a80b920e
DTITLE=Aubrey Haynie - Doin My Time
DYEAR=1998
DGENRE=Bluegrass
TTITLE0=Cherokee Shuffle (instrumental)
TTITLE1=Dark Hollow (featuring Don Rigsby and Ricky Skaggs)
TTITLE2=Leavin' Rosine (instrumental)
TTITLE3=Tobacco Patch (instrumental)
TTITLE4=Turkey In The Straw (instrumental)
TTITLE5=Montgomery Bell (instrumental)
TTITLE6=Doin' My Time (featuring Dan Tyminski)
TTITLE7=White Bluff (instrumental)
TTITLE8=Austin's Dream (instrumental)
TTITLE9=Cracker Jack (instrumental)
TTITLE10=Foolin' Around (instrumental)
TTITLE11=Forty Years Of Trouble (featuring Don Rigsby and Ricky Skaggs)
TTITLE12=Kentucky Hustler (instrumental)
TTITLE13=Trouble in Mind (instrumental)
EXTD=YEAR: 1998
EXTT0=
EXTT1=
EXTT2=
EXTT3=
EXTT4=
EXTT5=
EXTT6=
EXTT7=
EXTT8=
EXTT9=
EXTT10=
EXTT11=
EXTT12=
EXTT13=
PLAYORDER=
